<svg version="1.1" class="clearos-svg clearfoundation app-vendor-clearfoundation app-free app-category-server app-sub-category-messaging" viewBox="0 0 400 400" preserveAspectRatio="xMinYMin" xmlns="http://www.w3.org/2000/svg" xmlns:xlink= "http://www.w3.org/1999/xlink">
<path fill="#AA0707" d="M91.666,184.647"/>
<path fill="#AA0707" d="M123.245,247.805"/>
<path fill="#AA0707" d="M91.666,184.647"/>
<path fill="#AA0707" d="M123.245,247.805"/>
<path fill="#686868" d="M360.82,234.676c-9.499-9.531-36.119,1.688-45.636,11.203c0,0-11.486,11.504-25.294,25.311
	c-11.123,11.109-12.607-11.125-12.766-20.229v-26.354V59.979c0.031-14.17-11.439-25.626-25.609-25.626
	c-14.123,0-25.643,11.472-25.643,25.626v112.46c-0.096,5.46-0.893,15.709-5.239,15.709c-5.907,0-6.588-10.841-6.588-10.841V28.419
	c0-14.154-11.456-25.626-25.608-25.626c-14.14,0-25.643,11.472-25.643,25.626v146.474c-0.488,9.112-1.973,18.202-5.902,18.202
	c-4.979,0-6.271-12.853-6.572-22.336v-9.649c0-0.032,0-0.269,0-0.269l0,0V59.979c0.016-14.17-11.472-25.626-25.626-25.626
	c-14.138,0-25.634,11.456-25.634,25.626v117.7c-0.079,3.779-1.018,30.834-7.882,30.834c-5.609,0-6.461-14.535-6.58-25.793V94.821
	c0-14.139-11.487-25.634-25.642-25.634c-14.139,0-25.626,11.495-25.626,25.634v129.819v2.318v88.729
	c0,59.807,14.478,81.52,47.331,81.52h89.383c60.482,0,81.484-13.791,107.125-44.438l75.885-75.852
	C368.646,261.248,370.288,244.174,360.82,234.676z M69.706,237.957l56.104,53.445L69.706,343.57V237.957z M69.706,351.949
	l60.98-56.223l24.324,21.477l24.474-21.508l61.887,56.664L69.706,351.949z M241.369,343.555l-56.08-52.168l56.08-53.43V343.555z
	 M155.042,309.896l-85.335-78.6l171.665-0.361L155.042,309.896z"/>
</svg>
